# xmcd
#
# Track frame offsets:
#	150
#	15669
#	32356
#	47064
#	65071
#	81339
#	96645
#	111586
#	130712
#	146739
#	162960
#	177868
#	198250
#
# Disc length: 2850 seconds
#
# Revision: 1
# Processed by: cddbd v1.5.2PL0 Copyright (c) Steve Scherf et al.
# Submitted via: audiograbber 1.83.01
#
DISCID=b70b200d
DTITLE=Darius Rucker - Southern Style
DYEAR=2015
DGENRE=Country
TTITLE0=Homegrown Honey
TTITLE1=Good For a Good Time
TTITLE2=Baby I'm Right (feat. Mallary Hope)
TTITLE3=Southern Style
TTITLE4=High On Life
TTITLE5=Perfect
TTITLE6=You, Me and My Guitar
TTITLE7=Low Country
TTITLE8=Need You More
TTITLE9=Half Full Dixie Cup
TTITLE10=Lighter Up
TTITLE11=You Can Have Charleston
TTITLE12=So I Sang
EXTD=
EXTT0=
EXTT1=
EXTT2=
EXTT3=
EXTT4=
EXTT5=
EXTT6=
EXTT7=
EXTT8=
EXTT9=
EXTT10=
EXTT11=
EXTT12=
PLAYORDER=
